<svg width="10" height="7" viewBox="0 0 10 7" fill="none" xmlns="http://www.w3.org/2000/svg">
  <path d="M9.75648 0.71959C9.61584 0.578987 9.42511 0.5 9.22623 0.5C9.02736 0.5 8.83663 0.578987 8.69598 0.71959L4.98348 4.43209L1.27098 0.71959C1.12953 0.582971 0.94008 0.507375 0.743432 0.509084C0.546784 0.510793 0.358675 0.58967 0.219619 0.728726C0.0805626 0.867782 0.00168705 1.05589 -2.19345e-05 1.25254C-0.00173092 1.44919 0.0738649 1.63864 0.210484 1.78009L4.45323 6.02284C4.59388 6.16344 4.78461 6.24243 4.98348 6.24243C5.18236 6.24243 5.37309 6.16344 5.51373 6.02284L9.75648 1.78009C9.89709 1.63944 9.97607 1.44871 9.97607 1.24984C9.97607 1.05097 9.89709 0.860236 9.75648 0.71959Z" fill="#322633"/>
</svg>
