<svg width="16" height="16" viewBox="0 0 16 16" fill="none" xmlns="http://www.w3.org/2000/svg">
  <path d="M6.228 12.5213L4.94066 12.176L5.46533 10.2167C4.67998 9.92703 3.95008 9.50492 3.30733 8.96868L1.872 10.4047L0.928663 9.46134L2.36466 8.02601C1.55405 7.05518 1.00939 5.89052 0.783997 4.64601L2.096 4.40668C2.602 7.20801 5.05266 9.33334 8 9.33334C10.9467 9.33334 13.398 7.20801 13.904 4.40668L15.216 4.64534C14.9909 5.89002 14.4465 7.05492 13.636 8.02601L15.0713 9.46134L14.128 10.4047L12.6927 8.96868C12.0499 9.50492 11.32 9.92703 10.5347 10.2167L11.0593 12.1767L9.772 12.5213L9.24666 10.5613C8.42157 10.7027 7.57843 10.7027 6.75333 10.5613L6.228 12.5213Z" fill="#322633"/>
</svg>
